
        <svg xmlns="http://www.w3.org/2000/svg" xmlns:xlink="http://www.w3.org/1999/xlink" version="1.1" width="3214.285714285714" 
        height="2620.1612456011085" viewBox="0 0 3214.285714285714 2620.1612456011085">
			
			<g transform="scale(10.714285714285714) translate(10, 10)">
				<defs id="SvgjsDefs2344"><linearGradient id="SvgjsLinearGradient2353"><stop id="SvgjsStop2354" stop-color="#8f5e25" offset="0"></stop><stop id="SvgjsStop2355" stop-color="#fbf4a1" offset="0.5"></stop><stop id="SvgjsStop2356" stop-color="#8f5e25" offset="1"></stop></linearGradient><linearGradient id="SvgjsLinearGradient2357"><stop id="SvgjsStop2358" stop-color="#8f5e25" offset="0"></stop><stop id="SvgjsStop2359" stop-color="#fbf4a1" offset="0.5"></stop><stop id="SvgjsStop2360" stop-color="#8f5e25" offset="1"></stop></linearGradient><linearGradient id="SvgjsLinearGradient2361"><stop id="SvgjsStop2362" stop-color="#8f5e25" offset="0"></stop><stop id="SvgjsStop2363" stop-color="#fbf4a1" offset="0.5"></stop><stop id="SvgjsStop2364" stop-color="#8f5e25" offset="1"></stop></linearGradient><linearGradient id="SvgjsLinearGradient2365"><stop id="SvgjsStop2366" stop-color="#8f5e25" offset="0"></stop><stop id="SvgjsStop2367" stop-color="#fbf4a1" offset="0.5"></stop><stop id="SvgjsStop2368" stop-color="#8f5e25" offset="1"></stop></linearGradient></defs><g id="SvgjsG2345" featureKey="symbolFeature-0" transform="matrix(1.3449898430566982,0,0,1.3449898430566982,72.66442528233262,-13.249494718199454)" fill="url(#SvgjsLinearGradient2353)"><defs xmlns="http://www.w3.org/2000/svg"></defs><title xmlns="http://www.w3.org/2000/svg">a</title><path xmlns="http://www.w3.org/2000/svg" d="M41.162,42.652q.381.944.824,1.834A20.2,20.2,0,0,0,49,52.656V41.708a42.378,42.378,0,0,0-7.841.944ZM39.06,32.6a30.712,30.712,0,0,0,1.259,7.648A44.893,44.893,0,0,1,49,39.177V32.6Zm1.26-10.177a30.666,30.666,0,0,0-1.26,7.647H49V23.5a44.816,44.816,0,0,1-8.683-1.073ZM49,10.018a20.217,20.217,0,0,0-7,8.148q-.448.9-.836,1.859A42.358,42.358,0,0,0,49,20.968V10.018ZM38.692,19.4a33.989,33.989,0,0,1-5.153-1.941q.645-.777,1.358-1.491a21.718,21.718,0,0,1,9.639-5.6,24.5,24.5,0,0,0-4.8,6.675q-.567,1.139-1.045,2.359ZM36.528,30.073a33.227,33.227,0,0,1,1.343-8.282,36.157,36.157,0,0,1-5.854-2.265,21.615,21.615,0,0,0-3.45,10.547Zm1.344,10.812A33.228,33.228,0,0,1,36.528,32.6H28.567a21.622,21.622,0,0,0,3.45,10.548,36.114,36.114,0,0,1,5.855-2.266Zm6.662,11.427a21.713,21.713,0,0,1-9.637-5.6q-.712-.713-1.358-1.49a34.015,34.015,0,0,1,5.155-1.942q.469,1.2,1.028,2.326a24.61,24.61,0,0,0,4.812,6.709Zm17.549-8.964q-.452,1.148-.986,2.231A24.51,24.51,0,0,1,56.39,52.2a21.729,21.729,0,0,0,9.25-5.493Q66.352,46,67,45.219a33.72,33.72,0,0,0-4.915-1.871ZM64.28,32.6a33.339,33.339,0,0,1-1.37,8.355,35.922,35.922,0,0,1,5.61,2.193A21.622,21.622,0,0,0,71.97,32.6ZM62.913,21.718a33.182,33.182,0,0,1,1.367,8.355h7.69a21.615,21.615,0,0,0-3.45-10.547,35.983,35.983,0,0,1-5.607,2.192ZM56.382,10.473a24.528,24.528,0,0,1,4.636,6.466q.581,1.153,1.068,2.389A33.882,33.882,0,0,0,67,17.458q-.645-.777-1.358-1.491a21.733,21.733,0,0,0-9.258-5.494Zm3.241,9.5a42.223,42.223,0,0,1-8.089,1V9.851a20,20,0,0,1,7.231,8.225q.461.916.858,1.894Zm2.125,10.1a30.719,30.719,0,0,0-1.276-7.706A44.7,44.7,0,0,1,51.534,23.5v6.574Zm-1.28,10.235a30.8,30.8,0,0,0,1.28-7.7H51.534v6.574a44.81,44.81,0,0,1,8.934,1.131ZM51.534,52.827V41.708a42.28,42.28,0,0,1,8.087,1q-.366.9-.787,1.755a19.974,19.974,0,0,1-7.3,8.365ZM16.41,65.933l8.838,14.824c6.8-5.867,10.382-4.684,17.365-2.378a81.459,81.459,0,0,0,10.806,2.946q.035.006.069.015,1.929.486,7.163-.636A142.8,142.8,0,0,0,74.865,76.63a1.034,1.034,0,0,1,.109-.03c3.32-.987,5.039-2.233,5.587-3.338a1.134,1.134,0,0,0,.139-.716.911.911,0,0,0-.337-.5,4.492,4.492,0,0,0-3.67-.409l-.073.013c-1.746.322-3.2.658-4.545.967a41.478,41.478,0,0,1-10.61,1.354,1.3,1.3,0,0,1-.281-.031h0q-1.222-.276-4.894-1.469-3.73-1.213-9.765-3.285a1.264,1.264,0,0,1,.809-2.395,16.936,16.936,0,0,0,5.752.364,32.8,32.8,0,0,0,7.21-1.491c1.739-1.012,2.562-2.115,2.759-3.093a2.12,2.12,0,0,0-.084-1.161,2.05,2.05,0,0,0-.63-.873,2.435,2.435,0,0,0-2.135-.44,1.545,1.545,0,0,1-.161.027c-.609.077-1.516.207-2.452.342C52.676,61.17,46.9,62,39.4,60.455a1.28,1.28,0,0,1-.361-.134,13.19,13.19,0,0,0-9.972-.949c-3.531.969-7.566,3.173-12.661,6.561ZM3.967,69.03l8.376-4.994,1.119,1.877a1.274,1.274,0,0,0,.339.569L24.934,85.155l-8.376,4.994L3.967,69.03ZM18.942,84.707l.18-.175a1.262,1.262,0,1,0-1.759-1.809l-.18.175a1.262,1.262,0,0,0,1.759,1.809Zm62.243-60.29a1.264,1.264,0,0,1-2.323,1l-2.022-4.7a1.263,1.263,0,0,1,.662-1.66l4.7-2.023a1.264,1.264,0,1,1,1,2.323l-1.649.709a37.32,37.32,0,0,1,9.694,4.268c3.069,2.051,4.783,4.423,4.783,7.011S94.319,36.3,91.25,38.35a41.653,41.653,0,0,1-12.328,5.009,1.261,1.261,0,1,1-.633-2.441,39.18,39.18,0,0,0,11.557-4.664c2.346-1.567,3.657-3.238,3.657-4.916s-1.311-3.348-3.657-4.916a35.765,35.765,0,0,0-9.567-4.114l.906,2.109ZM19.131,38.029a1.264,1.264,0,0,1,2.323-1l2.022,4.7a1.264,1.264,0,0,1-.662,1.66l-4.7,2.023a1.264,1.264,0,0,1-1-2.323l1.433-.616A36.634,36.634,0,0,1,9.29,38.348C6.22,36.3,4.5,33.926,4.5,31.338S6.22,26.379,9.29,24.329a41.694,41.694,0,0,1,12.336-5.011,1.261,1.261,0,1,1,.632,2.441,39.266,39.266,0,0,0-11.564,4.665c-2.348,1.568-3.66,3.238-3.66,4.914s1.312,3.347,3.66,4.915a35.553,35.553,0,0,0,9.423,4.071Z" style="fill-rule: evenodd;"></path></g><g id="SvgjsG2346" featureKey="nameFeature-0" transform="matrix(1.1851550259977315,0,0,1.1851550259977315,-0.7110811055691452,112.40335551770252)" fill="url(#SvgjsLinearGradient2357)"><path d="M24.44 13.64 l0 7.16 c0 0.44 -0.32 0.76 -0.76 0.76 c-0.4 0 -0.72 -0.32 -0.72 -0.76 l0 -0.16 c0 -2.76 -1.64 -5.52 -4.92 -5.52 l-0.68801 0 c-0.816 0 -1.432 0.584 -1.432 1.244 l0.008008 20.896 c0 0.668 0.608 1.26 1.432 1.26 l0.56 0 c0.44 0 0.76 0.32 0.76 0.72 c0 0.44 -0.32 0.76 -0.76 0.76 l-10.792 0 c-0.44 0 -0.76 -0.32 -0.76 -0.76 c0 -0.4 0.32 -0.72 0.76 -0.72 l0.56 0 c0.816 0 1.432 -0.572 1.432 -1.244 l-0.008008 -20.896 c0 -0.676 -0.608 -1.26 -1.432 -1.26 l-0.68 0 c-3.28 0 -4.92 2.76 -4.92 5.52 l0 0.16 c0 0.44 -0.32 0.76 -0.76 0.76 c-0.4 0 -0.72 -0.32 -0.72 -0.76 l0 -7.16 l23.84 0 z M52.262 38.04 c0.36 0 0.56004 0.28 0.56004 0.6 c0 1.076 -1.888 1.82 -4.08 1.82 c-11.296 0 -2.936 -12.3 -12.68 -12.3 l-1.596 0 l0.0039844 9.1 c0 0.668 0.608 1.26 1.432 1.26 l0.56 0 c0.44 0 0.76 0.32 0.76 0.72 c0 0.44 -0.32 0.76 -0.76 0.76 l-10.792 0 c-0.44 0 -0.76 -0.32 -0.76 -0.76 c0 -0.4 0.32 -0.72 0.76 -0.72 l0.56 0 c0.816 0 1.432 -0.572 1.432 -1.244 l-0.008008 -20.896 c0 -0.676 -0.608 -1.26 -1.432 -1.26 l-0.56 0 c-0.44 0 -0.76 -0.32 -0.76 -0.72 c0 -0.44 0.32 -0.76 0.76 -0.76 l13.24 0 c6.92 0 10.28 2.56 10.28 6.8 c0 3.356 -2.628 5.788 -7.084 6.728 c9.368 1.9 4.8 11.392 8.364 11.392 c0.92 0 1.16 -0.52 1.8 -0.52 z M34.466 26.64 l2.5561 0 c3.96 0 4.92 -3.04 4.92 -5.96 c0 -2.8 -1.56 -5.56 -5.72 -5.56 l-0.32801 0 c-0.816 0 -1.432 0.584 -1.432 1.244 z M80.484 38.52 c0.4 0 0.76 0.32 0.76 0.76 c0 0.4 -0.36 0.72 -0.76 0.72 l-12.56 0 c-0.4 0 -0.76 -0.32 -0.76 -0.72 c0 -0.44 0.36 -0.76 0.76 -0.76 l1.44 0 c0.82 0 1.312 -0.628 0.96 -1.4 l-2.164 -4.88 l-9.016 0 l-2.02 4.88 c-0.28 0.736 0.16398 1.4 0.96 1.4 l1.44 0 c0.4 0 0.76 0.32 0.76 0.76 c0 0.4 -0.36 0.72 -0.76 0.72 l-7 0 c-0.4 0 -0.76 -0.32 -0.76 -0.72 c0 -0.44 0.36 -0.76 0.76 -0.76 l0.96 0 c1.04 0 1.48 -0.52 1.84 -1.4 l9.84 -23.72 l2.12 0 l10.36 23.76 c0.32 0.72 0.84 1.36 1.96 1.36 l0.88 0 z M59.739999999999995 30.8 l7.784 0 l-4.024 -9.076 z M106.026 13.64 c0.44 0 0.76 0.32 0.76 0.72 c0 0.44 -0.32 0.76 -0.76 0.76 l-0.56 0 c-0.88 0 -1.44 0.68 -1.44 1.4 l0 23.48 l-3.36 0 l-14.92 -19.3 l0 16.42 c0 0.72 0.56 1.4 1.44 1.4 l0.56 0 c0.44 0 0.76 0.32 0.76 0.76 c0 0.4 -0.32 0.72 -0.76 0.72 l-5.8 0 c-0.44 0 -0.76 -0.32 -0.76 -0.72 c0 -0.44 0.32 -0.76 0.76 -0.76 l0.56 0 c0.88 0 1.44 -0.68 1.44 -1.4 l0 -20.6 c0 -0.72 -0.56 -1.4 -1.44 -1.4 l-0.56 0 c-0.44 0 -0.76 -0.32 -0.76 -0.76 c0 -0.4 0.32 -0.72 0.76 -0.72 l6.36 0 l13.92 17.888 l0 -15.008 c0 -0.72 -0.56 -1.4 -1.44 -1.4 l-0.56 0 c-0.44 0 -0.76 -0.32 -0.76 -0.76 c0 -0.4 0.32 -0.72 0.76 -0.72 l5.8 0 z M118.048 40.48 c-5.68 0 -9.8 -3.28 -9.8 -7.16 c0 -2.08 1.48 -3.08 2.92 -3.08 c1.28 0 2.56 0.84 2.56 2.48 c0 1.52 -1.4 2.24 -1.4 3.24 c0 1.76 2.72 3 5.04 3 c2.88 0 6.04 -1.32 6.04 -4.76 c0 -5.72 -14.48 -3.08 -14.48 -12.92 c0 -5.92 5.16 -8.12 10.72 -8.12 c4.88 0 9.44 2.76 9.44 6.48 c0 2.2 -1.48 3.24 -2.88 3.24 c-1.32 0 -2.6 -0.88 -2.6 -2.52 c0 -1.68 1.36 -2.08 1.36 -3.08 c0 -1.64 -2.72 -2.6 -5 -2.6 c-3.04 0 -5.72 1.24 -5.72 4.44 c0 5.48 15.48 3.44 15.48 13.08 c0 4.44 -4.36 8.28 -11.68 8.28 z M151.91 17.56 c0 -1.56 -2.28 -2.76 -5.08 -2.76 c-3.76 0 -7.52 2.6 -7.52 12.04 c0 7.04 2.88 11.6 7.76 11.6 c2.88 0 5.44 -1.28 6.96 -3.72 c0.52 -0.84 0.8 -0.96 1.12 -0.96 c0.4 0 0.72 0.32 0.72 0.72 c0 0.44 -0.36 1.04 -0.96 1.84 c-1.56 2 -4.52 4.16 -9.28 4.16 c-8.84 0 -13.84 -5.96 -13.84 -13.64 c0 -7.64 5.4 -13.68 14.04 -13.68 c6.08 0 10.08 3.16 10.08 6.84 c0 2.56 -1.56 3.68 -3.04 3.68 c-1.36 0 -2.68 -0.92 -2.68 -2.56 c0 -1.72 1.72 -2.32 1.72 -3.56 z M178.892 32.08 c0.4 0 0.72004 0.32 0.72004 0.76 l0 7.16 l-21.392 0 c-0.44 0 -0.76 -0.32 -0.76 -0.76 c0 -0.4 0.32 -0.72 0.76 -0.72 l0.56 0 c0.816 0 1.432 -0.584 1.432 -1.244 l-0.008008 -20.896 c0 -0.668 -0.608 -1.26 -1.432 -1.26 l-0.56 0 c-0.44 0 -0.76 -0.32 -0.76 -0.72 c0 -0.44 0.32 -0.76 0.76 -0.76 l21.4 0 l0 7.16 c0 0.44 -0.32 0.76 -0.76 0.76 c-0.4 0 -0.72 -0.32 -0.72 -0.76 l0 -0.16 c0 -2.76 -1.64 -5.52 -4.92 -5.52 l-4.768 0 c-0.816 0 -1.432 0.572 -1.432 1.244 l0.0039844 9.156 l0.47602 0 c2.88 0 4.32 -1.04 4.32 -3.88 l0 -0.08 c0 -0.4 0.36 -0.76 0.76 -0.76 s0.76 0.36 0.76 0.76 l0 9.48 c0 0.4 -0.36 0.76 -0.76 0.76 s-0.76 -0.32 -0.76 -0.88 l0 -0.08 c0 -2.64 -1.36 -3.76 -4.32 -3.76 l-0.47602 0 l0.0039844 10.18 c0 0.676 0.608 1.26 1.432 1.26 l4.76 0 c3.28 0 4.92 -2.76 4.92 -5.52 l0 -0.16 c0 -0.44 0.32 -0.76 0.76 -0.76 z M207.43399999999997 13.64 c0.44 0 0.76 0.32 0.76 0.72 c0 0.44 -0.32 0.76 -0.76 0.76 l-0.56 0 c-0.88 0 -1.44 0.68 -1.44 1.4 l0 23.48 l-3.36 0 l-14.92 -19.3 l0 16.42 c0 0.72 0.56 1.4 1.44 1.4 l0.56 0 c0.44 0 0.76 0.32 0.76 0.76 c0 0.4 -0.32 0.72 -0.76 0.72 l-5.8 0 c-0.44 0 -0.76 -0.32 -0.76 -0.72 c0 -0.44 0.32 -0.76 0.76 -0.76 l0.56 0 c0.88 0 1.44 -0.68 1.44 -1.4 l0 -20.6 c0 -0.72 -0.56 -1.4 -1.44 -1.4 l-0.56 0 c-0.44 0 -0.76 -0.32 -0.76 -0.76 c0 -0.4 0.32 -0.72 0.76 -0.72 l6.36 0 l13.92 17.888 l0 -15.008 c0 -0.72 -0.56 -1.4 -1.44 -1.4 l-0.56 0 c-0.44 0 -0.76 -0.32 -0.76 -0.76 c0 -0.4 0.32 -0.72 0.76 -0.72 l5.8 0 z M220.77599999999998 13.64 c9.92 0 16.08 3.32 16.08 13 c0 7.6 -5.44 13.36 -16.08 13.36 l-11.152 0 c-0.44 0 -0.76 -0.32 -0.76 -0.76 c0 -0.4 0.32 -0.72 0.76 -0.72 l0.56 0 c0.816 0 1.432 -0.584 1.432 -1.244 l-0.008008 -20.896 c0 -0.668 -0.608 -1.26 -1.432 -1.26 l-0.56 0 c-0.44 0 -0.76 -0.32 -0.76 -0.72 c0 -0.44 0.32 -0.76 0.76 -0.76 l11.16 0 z M220.77599999999998 38.52 c5.08 0 8.56 -3.6 8.56 -11.88 c0 -8.36 -3.04 -11.52 -8.56 -11.52 l-0.92801 0 c-0.816 0 -1.432 0.584 -1.432 1.244 l0.008008 20.896 c0 0.668 0.608 1.26 1.432 1.26 l0.92 0 z"></path></g><g id="SvgjsG2347" featureKey="nameFeature-1" transform="matrix(0.9232330302458878,0,0,0.9232330302458878,-0.553930540262042,157.85025346283828)" fill="url(#SvgjsLinearGradient2361)"><path d="M24.44 13.64 l0 7.16 c0 0.44 -0.32 0.76 -0.76 0.76 c-0.4 0 -0.72 -0.32 -0.72 -0.76 l0 -0.16 c0 -2.76 -1.64 -5.52 -4.92 -5.52 l-0.68801 0 c-0.816 0 -1.432 0.584 -1.432 1.244 l0.008008 20.896 c0 0.668 0.608 1.26 1.432 1.26 l0.56 0 c0.44 0 0.76 0.32 0.76 0.72 c0 0.44 -0.32 0.76 -0.76 0.76 l-10.792 0 c-0.44 0 -0.76 -0.32 -0.76 -0.76 c0 -0.4 0.32 -0.72 0.76 -0.72 l0.56 0 c0.816 0 1.432 -0.572 1.432 -1.244 l-0.008008 -20.896 c0 -0.676 -0.608 -1.26 -1.432 -1.26 l-0.68 0 c-3.28 0 -4.92 2.76 -4.92 5.52 l0 0.16 c0 0.44 -0.32 0.76 -0.76 0.76 c-0.4 0 -0.72 -0.32 -0.72 -0.76 l0 -7.16 l23.84 0 z M46.342 32.08 c0.4 0 0.72004 0.32 0.72004 0.76 l0 7.16 l-21.392 0 c-0.44 0 -0.76 -0.32 -0.76 -0.76 c0 -0.4 0.32 -0.72 0.76 -0.72 l0.56 0 c0.816 0 1.432 -0.584 1.432 -1.244 l-0.008008 -20.896 c0 -0.668 -0.608 -1.26 -1.432 -1.26 l-0.56 0 c-0.44 0 -0.76 -0.32 -0.76 -0.72 c0 -0.44 0.32 -0.76 0.76 -0.76 l21.4 0 l0 7.16 c0 0.44 -0.32 0.76 -0.76 0.76 c-0.4 0 -0.72 -0.32 -0.72 -0.76 l0 -0.16 c0 -2.76 -1.64 -5.52 -4.92 -5.52 l-4.768 0 c-0.816 0 -1.432 0.572 -1.432 1.244 l0.0039844 9.156 l0.47602 0 c2.88 0 4.32 -1.04 4.32 -3.88 l0 -0.08 c0 -0.4 0.36 -0.76 0.76 -0.76 s0.76 0.36 0.76 0.76 l0 9.48 c0 0.4 -0.36 0.76 -0.76 0.76 s-0.76 -0.32 -0.76 -0.88 l0 -0.08 c0 -2.64 -1.36 -3.76 -4.32 -3.76 l-0.47602 0 l0.0039844 10.18 c0 0.676 0.608 1.26 1.432 1.26 l4.76 0 c3.28 0 4.92 -2.76 4.92 -5.52 l0 -0.16 c0 -0.44 0.32 -0.76 0.76 -0.76 z M70.764 17.56 c0 -1.56 -2.28 -2.76 -5.08 -2.76 c-3.76 0 -7.52 2.6 -7.52 12.04 c0 7.04 2.88 11.6 7.76 11.6 c2.88 0 5.44 -1.28 6.96 -3.72 c0.52 -0.84 0.8 -0.96 1.12 -0.96 c0.4 0 0.72 0.32 0.72 0.72 c0 0.44 -0.36 1.04 -0.96 1.84 c-1.56 2 -4.52 4.16 -9.28 4.16 c-8.84 0 -13.84 -5.96 -13.84 -13.64 c0 -7.64 5.4 -13.68 14.04 -13.68 c6.08 0 10.08 3.16 10.08 6.84 c0 2.56 -1.56 3.68 -3.04 3.68 c-1.36 0 -2.68 -0.92 -2.68 -2.56 c0 -1.72 1.72 -2.32 1.72 -3.56 z M105.066 38.52 c0.44 0 0.76 0.32 0.76 0.72 c0 0.44 -0.32 0.76 -0.76 0.76 l-10.792 0 c-0.44 0 -0.76 -0.32 -0.76 -0.76 c0 -0.4 0.32 -0.72 0.76 -0.72 l0.56 0 c0.816 0 1.432 -0.572 1.432 -1.244 l-0.0039844 -10.356 l-10.392 0 l0.0039844 10.34 c0 0.668 0.608 1.26 1.432 1.26 l0.56 0 c0.44 0 0.76 0.32 0.76 0.72 c0 0.44 -0.32 0.76 -0.76 0.76 l-10.792 0 c-0.44 0 -0.76 -0.32 -0.76 -0.76 c0 -0.4 0.32 -0.72 0.76 -0.72 l0.56 0 c0.816 0 1.432 -0.572 1.432 -1.244 l-0.008008 -20.896 c0 -0.676 -0.608 -1.26 -1.432 -1.26 l-0.56 0 c-0.44 0 -0.76 -0.32 -0.76 -0.72 c0 -0.44 0.32 -0.76 0.76 -0.76 l10.792 0 c0.44 0 0.76 0.32 0.76 0.76 c0 0.4 -0.32 0.72 -0.76 0.72 l-0.56 0 c-0.816 0 -1.432 0.584 -1.432 1.244 l0.0039844 9.076 l10.392 0 l-0.0039844 -9.06 c0 -0.676 -0.608 -1.26 -1.432 -1.26 l-0.56 0 c-0.44 0 -0.76 -0.32 -0.76 -0.72 c0 -0.44 0.32 -0.76 0.76 -0.76 l10.792 0 c0.44 0 0.76 0.32 0.76 0.76 c0 0.4 -0.32 0.72 -0.76 0.72 l-0.56 0 c-0.816 0 -1.432 0.584 -1.432 1.244 l0.008008 20.896 c0 0.668 0.608 1.26 1.432 1.26 l0.56 0 z M131.328 13.64 c0.44 0 0.76 0.32 0.76 0.72 c0 0.44 -0.32 0.76 -0.76 0.76 l-0.56 0 c-0.88 0 -1.44 0.68 -1.44 1.4 l0 23.48 l-3.36 0 l-14.92 -19.3 l0 16.42 c0 0.72 0.56 1.4 1.44 1.4 l0.56 0 c0.44 0 0.76 0.32 0.76 0.76 c0 0.4 -0.32 0.72 -0.76 0.72 l-5.8 0 c-0.44 0 -0.76 -0.32 -0.76 -0.72 c0 -0.44 0.32 -0.76 0.76 -0.76 l0.56 0 c0.88 0 1.44 -0.68 1.44 -1.4 l0 -20.6 c0 -0.72 -0.56 -1.4 -1.44 -1.4 l-0.56 0 c-0.44 0 -0.76 -0.32 -0.76 -0.76 c0 -0.4 0.32 -0.72 0.76 -0.72 l6.36 0 l13.92 17.888 l0 -15.008 c0 -0.72 -0.56 -1.4 -1.44 -1.4 l-0.56 0 c-0.44 0 -0.76 -0.32 -0.76 -0.76 c0 -0.4 0.32 -0.72 0.76 -0.72 l5.8 0 z M147.63 13.2 c8.6 0 14.28 6 14.28 13.64 s-5.68 13.64 -14.28 13.64 c-8.64 0 -14.28 -6 -14.28 -13.64 s5.64 -13.64 14.28 -13.64 z M147.63 39 c5.24 0 6.76 -5.44 6.76 -12.16 s-1.52 -12.16 -6.76 -12.16 s-6.76 5.44 -6.76 12.16 s1.52 12.16 6.76 12.16 z M184.29199999999997 32.08 c0.4 0 0.72 0.32 0.72 0.76 l0 7.16 l-21.072 0 c-0.44 0 -0.76 -0.32 -0.76 -0.76 c0 -0.4 0.32 -0.72 0.76 -0.72 l0.56 0 c0.816 0 1.432 -0.572 1.432 -1.244 l-0.008008 -20.896 c0 -0.676 -0.608 -1.26 -1.432 -1.26 l-0.56 0 c-0.44 0 -0.76 -0.32 -0.76 -0.72 c0 -0.44 0.32 -0.76 0.76 -0.76 l10.792 0 c0.44 0 0.76 0.32 0.76 0.76 c0 0.4 -0.32 0.72 -0.76 0.72 l-0.56 0 c-0.816 0 -1.432 0.584 -1.432 1.244 l0.008008 20.896 c0 0.668 0.608 1.26 1.432 1.26 l4.44 0 c3.16 0 4.92 -2.8 4.92 -5.24 l0 -0.44 c0 -0.44 0.32 -0.76 0.76 -0.76 z M199.914 13.2 c8.6 0 14.28 6 14.28 13.64 s-5.68 13.64 -14.28 13.64 c-8.64 0 -14.28 -6 -14.28 -13.64 s5.64 -13.64 14.28 -13.64 z M199.914 39 c5.24 0 6.76 -5.44 6.76 -12.16 s-1.52 -12.16 -6.76 -12.16 s-6.76 5.44 -6.76 12.16 s1.52 12.16 6.76 12.16 z M240.81599999999997 37.44 c-3.04 1.84 -7.36 3.04 -10.92 3.04 c-8.84 0 -13.84 -5.96 -13.84 -13.64 c0 -7.64 5.4 -13.68 14.04 -13.68 c6.08 0 10.08 3.16 10.08 6.84 c0 2.56 -1.56 3.68 -3.04 3.68 c-1.36 0 -2.68 -0.92 -2.68 -2.56 c0 -1.72 1.72 -2.32 1.72 -3.56 c0 -1.56 -2.28 -2.76 -5.08 -2.76 c-3.76 0 -7.52 2.6 -7.52 12.04 c0 7.04 2.88 11.6 7.76 11.6 c0.92 0 1.84 -0.12 2.68 -0.4 l0 -7.4 c0 -0.72 -0.56 -1.4 -1.44 -1.4 l-1.36 0 c-0.44 0 -0.76 -0.32 -0.76 -0.72 c0 -0.44 0.32 -0.76 0.76 -0.76 l9.6 0 l0 9.68 z M255.03799999999995 38.52 c0.44 0 0.76 0.32 0.76 0.72 c0 0.44 -0.32 0.76 -0.76 0.76 l-10.792 0 c-0.44 0 -0.76 -0.32 -0.76 -0.76 c0 -0.4 0.32 -0.72 0.76 -0.72 l0.56 0 c0.816 0 1.432 -0.572 1.432 -1.244 l-0.008008 -20.896 c0 -0.676 -0.608 -1.26 -1.432 -1.26 l-0.56 0 c-0.44 0 -0.76 -0.32 -0.76 -0.72 c0 -0.44 0.32 -0.76 0.76 -0.76 l10.792 0 c0.44 0 0.76 0.32 0.76 0.76 c0 0.4 -0.32 0.72 -0.76 0.72 l-0.56 0 c-0.816 0 -1.432 0.584 -1.432 1.244 l0.008008 20.896 c0 0.668 0.608 1.26 1.432 1.26 l0.56 0 z M277.9 32.08 c0.4 0 0.72004 0.32 0.72004 0.76 l0 7.16 l-21.392 0 c-0.44 0 -0.76 -0.32 -0.76 -0.76 c0 -0.4 0.32 -0.72 0.76 -0.72 l0.56 0 c0.816 0 1.432 -0.584 1.432 -1.244 l-0.008008 -20.896 c0 -0.668 -0.608 -1.26 -1.432 -1.26 l-0.56 0 c-0.44 0 -0.76 -0.32 -0.76 -0.72 c0 -0.44 0.32 -0.76 0.76 -0.76 l21.4 0 l0 7.16 c0 0.44 -0.32 0.76 -0.76 0.76 c-0.4 0 -0.72 -0.32 -0.72 -0.76 l0 -0.16 c0 -2.76 -1.64 -5.52 -4.92 -5.52 l-4.768 0 c-0.816 0 -1.432 0.572 -1.432 1.244 l0.0039844 9.156 l0.47602 0 c2.88 0 4.32 -1.04 4.32 -3.88 l0 -0.08 c0 -0.4 0.36 -0.76 0.76 -0.76 s0.76 0.36 0.76 0.76 l0 9.48 c0 0.4 -0.36 0.76 -0.76 0.76 s-0.76 -0.32 -0.76 -0.88 l0 -0.08 c0 -2.64 -1.36 -3.76 -4.32 -3.76 l-0.47602 0 l0.0039844 10.18 c0 0.676 0.608 1.26 1.432 1.26 l4.76 0 c3.28 0 4.92 -2.76 4.92 -5.52 l0 -0.16 c0 -0.44 0.32 -0.76 0.76 -0.76 z M292.20199999999994 40.48 c-5.68 0 -9.8 -3.28 -9.8 -7.16 c0 -2.08 1.48 -3.08 2.92 -3.08 c1.28 0 2.56 0.84 2.56 2.48 c0 1.52 -1.4 2.24 -1.4 3.24 c0 1.76 2.72 3 5.04 3 c2.88 0 6.04 -1.32 6.04 -4.76 c0 -5.72 -14.48 -3.08 -14.48 -12.92 c0 -5.92 5.16 -8.12 10.72 -8.12 c4.88 0 9.44 2.76 9.44 6.48 c0 2.2 -1.48 3.24 -2.88 3.24 c-1.32 0 -2.6 -0.88 -2.6 -2.52 c0 -1.68 1.36 -2.08 1.36 -3.08 c0 -1.64 -2.72 -2.6 -5 -2.6 c-3.04 0 -5.72 1.24 -5.72 4.44 c0 5.48 15.48 3.44 15.48 13.08 c0 4.44 -4.36 8.28 -11.68 8.28 z"></path></g><g id="SvgjsG2348" featureKey="sloganFeature-0" transform="matrix(0.5833171785378156,0,0,0.5833171785378156,39.29773423874954,212.68675880418556)" fill="url(#SvgjsLinearGradient2365)"><path d="M5.12 20.32 c-1.64 0 -4.14 -0.72 -3.9 -1.6 l0.2 -0.74 c0.56 -2.1 1.22 0.98 4.52 0.98 c1.68 0 2.5 -0.82 2.5 -1.98 c0 -0.94 -0.6 -1.34 -2.02 -2.22 l-1.94 -1.22 c-2.16 -1.36 -3.04 -2.2 -3.04 -3.7 c0 -2.46 2.4 -4.16 4.88 -4.16 c1.52 0 3.46 0.66 3.24 1.34 l-0.24 0.76 c-0.62 1.94 -1.12 -0.74 -3.86 -0.74 c-1.42 0 -2.16 0.72 -2.16 1.78 c0 0.9 0.54 1.4 1.88 2.22 l2.1 1.3 c2.12 1.32 2.98 2.22 2.98 3.66 c0 2.5 -2.46 4.32 -5.14 4.32 z M14.5525 20 c-0.16 0 -0.28 -0.66 -0.12 -0.68 c1.02 -0.14 1.66 -0.54 1.66 -1.8 l0 -9.04 c0 -1.26 -0.64 -1.66 -1.66 -1.8 c-0.16 -0.02 -0.04 -0.68 0.12 -0.68 l5.48 0 c0.16 0 0.28 0.66 0.12 0.68 c-0.86 0.12 -1.66 0.4 -1.66 1.8 l0 9.04 c0 1.4 0.8 1.68 1.66 1.8 c0.16 0.02 0.04 0.68 -0.12 0.68 l-5.48 0 z M24.025000000000002 20.04 c-0.2 0.02 -0.28 -0.68 -0.12 -0.72 c1.16 -0.3 2.06 -0.48 2.06 -1.96 l0 -8.88 c0 -1.4 -0.82 -1.68 -1.68 -1.8 c-0.16 -0.02 -0.04 -0.68 0.1 -0.68 l5.52 0 c0.14 0 0.24 0.66 0.1 0.68 c-0.84 0.1 -1.64 0.4 -1.64 1.8 l0 8.88 c0 1.14 0.48 1.56 2.14 1.56 c3.02 0 4.22 -1.38 4.7 -2.14 c0.14 -0.22 0.68 -0.12 0.68 0.22 c0 1.02 -0.86 3.04 -2.12 3.04 c-1.12 -0.06 -2.22 -0.12 -3.9 -0.12 c-1.84 0 -4.02 -0.06 -5.84 0.12 z M39.7775 20 c-0.16 0 -0.28 -0.66 -0.12 -0.68 c1.02 -0.14 1.66 -0.54 1.66 -1.8 l0 -9.04 c0 -1.26 -0.64 -1.66 -1.66 -1.8 c-0.16 -0.02 -0.04 -0.68 0.12 -0.68 l5.48 0 c0.16 0 0.28 0.66 0.12 0.68 c-0.86 0.12 -1.66 0.4 -1.66 1.8 l0 9.04 c0 1.4 0.8 1.68 1.66 1.8 c0.16 0.02 0.04 0.68 -0.12 0.68 l-5.48 0 z M57.550000000000004 20.32 c-3.36 0 -7.9 -1.96 -7.9 -7.06 c0 -3.46 2.12 -7.58 7.72 -7.58 c2.32 0 4.32 0.72 4.08 1.42 l-0.26 0.78 c-0.72 2.14 -1.5 -0.6 -5.06 -0.6 c-2.86 0 -4.26 1.86 -4.26 4.74 c0 4.5 3.42 6.38 6.16 6.38 c0.36 0 2.18 -0.28 3.22 -0.94 c0.16 -0.1 0.58 0.36 0.46 0.54 c-0.86 1.26 -3.54 2.32 -4.16 2.32 z M73.3425 20.32 c-4.16 0 -7.22 -3.08 -7.22 -7.24 c0 -4.04 2.88 -7.4 7.26 -7.4 c4.18 0 7.22 3.06 7.22 7.22 c0 4.06 -2.86 7.42 -7.26 7.42 z M74.1225 18.96 c1.76 0 4.1 -1.16 4.1 -4.94 c0 -4.04 -2.74 -6.98 -5.62 -6.98 c-1.76 0 -4.08 1.16 -4.08 4.92 c0 4.08 2.74 7 5.6 7 z M98.055 20.2 c-0.34 0 -0.52 -0.14 -0.74 -0.38 l-9.52 -9.96 l0 7.6 c0 1.36 0.8 1.58 1.94 1.86 c0.16 0.04 0.08 0.68 -0.12 0.68 l-4.74 0 c-0.16 0 -0.28 -0.62 -0.1 -0.68 c0.84 -0.28 1.64 -0.44 1.64 -1.86 l0 -7.76 c0 -1.42 -0.22 -2.1 -0.74 -2.8 c-0.18 -0.24 -0.36 -0.4 -0.36 -0.46 c0 -0.18 0.12 -0.44 0.4 -0.44 l1.48 0 c0.2 0 0.34 0.02 0.48 0.18 l9.32 9.86 l0 -7.52 c0 -1.42 -0.9 -1.58 -1.94 -1.84 c-0.16 -0.04 -0.08 -0.68 0.12 -0.68 l4.74 0 c0.16 0 0.26 0.64 0.1 0.68 c-0.88 0.26 -1.64 0.42 -1.64 1.84 l0 7.78 c0 1.32 0.04 2.78 0.24 3.52 c0.08 0.3 -0.24 0.38 -0.56 0.38 z M110.38 20 c-0.16 0 -0.28 -0.66 -0.12 -0.68 c1.02 -0.14 1.66 -0.54 1.66 -1.8 l0 -9.04 c0 -1.26 -0.64 -1.66 -1.66 -1.8 c-0.16 -0.02 -0.04 -0.68 0.12 -0.68 l5.48 0 c0.16 0 0.28 0.66 0.12 0.68 c-0.86 0.12 -1.66 0.4 -1.66 1.8 l0 9.04 c0 1.4 0.8 1.68 1.66 1.8 c0.16 0.02 0.04 0.68 -0.12 0.68 l-5.48 0 z M133.2125 20.2 c-0.34 0 -0.52 -0.14 -0.74 -0.38 l-9.52 -9.96 l0 7.6 c0 1.36 0.8 1.58 1.94 1.86 c0.16 0.04 0.08 0.68 -0.12 0.68 l-4.74 0 c-0.16 0 -0.28 -0.62 -0.1 -0.68 c0.84 -0.28 1.64 -0.44 1.64 -1.86 l0 -7.76 c0 -1.42 -0.22 -2.1 -0.74 -2.8 c-0.18 -0.24 -0.36 -0.4 -0.36 -0.46 c0 -0.18 0.12 -0.44 0.4 -0.44 l1.48 0 c0.2 0 0.34 0.02 0.48 0.18 l9.32 9.86 l0 -7.52 c0 -1.42 -0.9 -1.58 -1.94 -1.84 c-0.16 -0.04 -0.08 -0.68 0.12 -0.68 l4.74 0 c0.16 0 0.26 0.64 0.1 0.68 c-0.88 0.26 -1.64 0.42 -1.64 1.84 l0 7.78 c0 1.32 0.04 2.78 0.24 3.52 c0.08 0.3 -0.24 0.38 -0.56 0.38 z M148.3175 20 c-0.18 0 -0.3 -0.64 -0.14 -0.66 c1.38 -0.18 2.3 -0.46 2.3 -1.54 l0 -9.86 c0 -0.5 -0.18 -0.66 -0.66 -0.66 l-0.54 0 c-1.9 0 -2.96 0.44 -3.36 1.3 c-0.18 0.4 -0.86 0.34 -0.78 0 c0.18 -0.72 0.34 -1.34 0.46 -2.4 c0.04 -0.38 0.26 -0.36 0.62 -0.32 c0.92 0.1 1.76 0.14 5.56 0.14 s5.14 -0.04 6.1 -0.14 c0.36 -0.04 0.7 -0.06 0.58 0.32 c-0.3 0.94 -0.5 1.68 -0.62 2.4 c-0.06 0.34 -0.6 0.36 -0.68 0 c-0.2 -0.84 -1.08 -1.3 -2.8 -1.3 l-0.62 0 c-0.48 0 -0.78 0.16 -0.78 0.66 l0 9.86 c0 1.08 0.92 1.36 2.3 1.54 c0.16 0.02 0.04 0.66 -0.14 0.66 l-6.8 0 z M177.29 19.32 c0.16 0.02 0.04 0.68 -0.12 0.68 l-5.48 0 c-0.16 0 -0.28 -0.66 -0.12 -0.68 c1.02 -0.14 1.66 -0.54 1.66 -1.8 l0 -3.44 c-0.1 -0.34 -0.52 -0.34 -0.9 -0.34 l-5.12 0 c-0.38 0 -0.8 0 -0.9 0.34 l0 3.44 c0 1.4 0.8 1.68 1.66 1.8 c0.16 0.02 0.04 0.68 -0.12 0.68 l-5.48 0 c-0.16 0 -0.28 -0.66 -0.12 -0.68 c1.02 -0.14 1.66 -0.54 1.66 -1.8 l0 -9.04 c0 -1.26 -0.64 -1.66 -1.66 -1.8 c-0.16 -0.02 -0.04 -0.68 0.12 -0.68 l5.48 0 c0.16 0 0.28 0.66 0.12 0.68 c-0.86 0.12 -1.66 0.4 -1.66 1.8 l0 3.66 c0.1 0.34 0.52 0.34 0.9 0.34 l5.12 0 c0.38 0 0.8 0 0.9 -0.34 l0 -3.66 c0 -1.26 -0.64 -1.66 -1.66 -1.8 c-0.16 -0.02 -0.04 -0.68 0.12 -0.68 l5.48 0 c0.16 0 0.28 0.66 0.12 0.68 c-0.86 0.12 -1.66 0.4 -1.66 1.8 l0 9.04 c0 1.4 0.8 1.68 1.66 1.8 z M181.1625 20.04 c-0.2 0.02 -0.28 -0.68 -0.12 -0.72 c1.16 -0.3 2.06 -0.48 2.06 -1.96 l0 -8.88 c0 -1.28 -0.82 -1.62 -1.68 -1.84 c-0.16 -0.04 -0.06 -0.7 0.1 -0.68 c1.46 0.16 3.98 0.12 5.2 0.12 c1.82 0 3.14 -0.08 4.78 -0.12 c0.48 0 0.48 0.32 0.38 0.78 l-0.48 1.9 c-0.06 0.28 -0.56 0.28 -0.64 0 c-0.3 -0.98 -0.9 -1.54 -3.4 -1.54 c-1.4 0 -1.86 0.36 -1.86 1.4 l0 3.26 c0 0.52 0.26 0.62 0.66 0.62 l0.44 0 c1.62 0 3.02 -0.16 3.84 -0.9 c0.2 -0.18 0.64 -0.14 0.46 0.26 l-1.14 2.52 c-0.16 0.36 -0.46 0.32 -0.68 0.02 c-0.46 -0.64 -1.48 -0.9 -2.64 -0.9 l-0.28 0 c-0.4 0 -0.66 0.1 -0.66 0.62 l0 3.36 c0 1.14 0.48 1.56 2.14 1.56 c3.02 0 4.22 -1.38 4.7 -2.14 c0.14 -0.22 0.68 -0.12 0.68 0.22 c0 1.02 -0.86 3.04 -2.12 3.04 c-1.12 -0.06 -2.22 -0.12 -3.9 -0.12 c-1.84 0 -4.02 -0.06 -5.84 0.12 z M207.4275 20.32 c-1.64 0 -4.14 -0.72 -3.9 -1.6 l0.2 -0.74 c0.56 -2.1 1.22 0.98 4.52 0.98 c1.68 0 2.5 -0.82 2.5 -1.98 c0 -0.94 -0.6 -1.34 -2.02 -2.22 l-1.94 -1.22 c-2.16 -1.36 -3.04 -2.2 -3.04 -3.7 c0 -2.46 2.4 -4.16 4.88 -4.16 c1.52 0 3.46 0.66 3.24 1.34 l-0.24 0.76 c-0.62 1.94 -1.12 -0.74 -3.86 -0.74 c-1.42 0 -2.16 0.72 -2.16 1.78 c0 0.9 0.54 1.4 1.88 2.22 l2.1 1.3 c2.12 1.32 2.98 2.22 2.98 3.66 c0 2.5 -2.46 4.32 -5.14 4.32 z M231.3 19.32 c0.28 0.04 0.2 0.68 -0.04 0.68 l-5.28 0 c-0.26 0 -0.28 -0.64 -0.06 -0.68 c0.74 -0.14 1.54 -0.4 0.8 -2.12 l-0.22 -0.5 c-0.2 -0.48 -0.54 -0.52 -1.14 -0.52 l-4.08 0 c-0.6 0 -0.94 0.04 -1.14 0.52 l-0.2 0.5 c-0.7 1.72 0.06 1.98 1.02 2.12 c0.26 0.04 0.2 0.68 -0.06 0.68 l-4.32 0 c-0.24 0 -0.3 -0.64 -0.06 -0.68 c0.82 -0.14 1.3 -0.42 2.04 -2.12 l3.38 -7.76 c0.78 -1.76 1.02 -2.58 1.02 -3.34 c0 -0.12 1.4 -0.44 1.46 -0.3 l4.88 11.38 c0.72 1.7 1.2 2.02 2 2.14 z M225.22000000000003 15.059999999999999 c0.28 0 0.58 -0.04 0.46 -0.32 l-2.34 -5.6 l-2.36 5.6 c-0.12 0.28 0.18 0.32 0.46 0.32 l3.78 0 z M249.7725 6 c0.22 0 0.3 0.64 0.04 0.68 c-0.8 0.12 -1.32 0.44 -2.04 2.12 l-3.38 7.86 c-0.7 1.62 -1.02 2.54 -1.02 3.34 c0 0.12 -1.38 0.44 -1.44 0.3 l-4.86 -11.48 c-0.72 -1.72 -1.26 -2.02 -2.04 -2.14 c-0.26 -0.04 -0.2 -0.68 0.06 -0.68 l5.26 0 c0.26 0 0.3 0.64 0.06 0.68 c-0.74 0.12 -1.48 0.44 -0.78 2.12 l3.38 8.12 l3.38 -8.12 c0.72 -1.72 -0.08 -1.98 -1 -2.12 c-0.26 -0.04 -0.2 -0.68 0.06 -0.68 l4.32 0 z M268.305 19.32 c0.28 0.04 0.2 0.68 -0.04 0.68 l-5.28 0 c-0.26 0 -0.28 -0.64 -0.06 -0.68 c0.74 -0.14 1.54 -0.4 0.8 -2.12 l-0.22 -0.5 c-0.2 -0.48 -0.54 -0.52 -1.14 -0.52 l-4.08 0 c-0.6 0 -0.94 0.04 -1.14 0.52 l-0.2 0.5 c-0.7 1.72 0.06 1.98 1.02 2.12 c0.26 0.04 0.2 0.68 -0.06 0.68 l-4.32 0 c-0.24 0 -0.3 -0.64 -0.06 -0.68 c0.82 -0.14 1.3 -0.42 2.04 -2.12 l3.38 -7.76 c0.78 -1.76 1.02 -2.58 1.02 -3.34 c0 -0.12 1.4 -0.44 1.46 -0.3 l4.88 11.38 c0.72 1.7 1.2 2.02 2 2.14 z M262.225 15.059999999999999 c0.28 0 0.58 -0.04 0.46 -0.32 l-2.34 -5.6 l-2.36 5.6 c-0.12 0.28 0.18 0.32 0.46 0.32 l3.78 0 z M285.33750000000003 20.2 c-0.34 0 -0.52 -0.14 -0.74 -0.38 l-9.52 -9.96 l0 7.6 c0 1.36 0.8 1.58 1.94 1.86 c0.16 0.04 0.08 0.68 -0.12 0.68 l-4.74 0 c-0.16 0 -0.28 -0.62 -0.1 -0.68 c0.84 -0.28 1.64 -0.44 1.64 -1.86 l0 -7.76 c0 -1.42 -0.22 -2.1 -0.74 -2.8 c-0.18 -0.24 -0.36 -0.4 -0.36 -0.46 c0 -0.18 0.12 -0.44 0.4 -0.44 l1.48 0 c0.2 0 0.34 0.02 0.48 0.18 l9.32 9.86 l0 -7.52 c0 -1.42 -0.9 -1.58 -1.94 -1.84 c-0.16 -0.04 -0.08 -0.68 0.12 -0.68 l4.74 0 c0.16 0 0.26 0.64 0.1 0.68 c-0.88 0.26 -1.64 0.42 -1.64 1.84 l0 7.78 c0 1.32 0.04 2.78 0.24 3.52 c0.08 0.3 -0.24 0.38 -0.56 0.38 z M304.53000000000003 20.2 c-0.34 0 -0.52 -0.14 -0.74 -0.38 l-9.52 -9.96 l0 7.6 c0 1.36 0.8 1.58 1.94 1.86 c0.16 0.04 0.08 0.68 -0.12 0.68 l-4.74 0 c-0.16 0 -0.28 -0.62 -0.1 -0.68 c0.84 -0.28 1.64 -0.44 1.64 -1.86 l0 -7.76 c0 -1.42 -0.22 -2.1 -0.74 -2.8 c-0.18 -0.24 -0.36 -0.4 -0.36 -0.46 c0 -0.18 0.12 -0.44 0.4 -0.44 l1.48 0 c0.2 0 0.34 0.02 0.48 0.18 l9.32 9.86 l0 -7.52 c0 -1.42 -0.9 -1.58 -1.94 -1.84 c-0.16 -0.04 -0.08 -0.68 0.12 -0.68 l4.74 0 c0.16 0 0.26 0.64 0.1 0.68 c-0.88 0.26 -1.64 0.42 -1.64 1.84 l0 7.78 c0 1.32 0.04 2.78 0.24 3.52 c0.08 0.3 -0.24 0.38 -0.56 0.38 z M325.1025 19.32 c0.28 0.04 0.2 0.68 -0.04 0.68 l-5.28 0 c-0.26 0 -0.28 -0.64 -0.06 -0.68 c0.74 -0.14 1.54 -0.4 0.8 -2.12 l-0.22 -0.5 c-0.2 -0.48 -0.54 -0.52 -1.14 -0.52 l-4.08 0 c-0.6 0 -0.94 0.04 -1.14 0.52 l-0.2 0.5 c-0.7 1.72 0.06 1.98 1.02 2.12 c0.26 0.04 0.2 0.68 -0.06 0.68 l-4.32 0 c-0.24 0 -0.3 -0.64 -0.06 -0.68 c0.82 -0.14 1.3 -0.42 2.04 -2.12 l3.38 -7.76 c0.78 -1.76 1.02 -2.58 1.02 -3.34 c0 -0.12 1.4 -0.44 1.46 -0.3 l4.88 11.38 c0.72 1.7 1.2 2.02 2 2.14 z M319.02250000000004 15.059999999999999 c0.28 0 0.58 -0.04 0.46 -0.32 l-2.34 -5.6 l-2.36 5.6 c-0.12 0.28 0.18 0.32 0.46 0.32 l3.78 0 z M343.99500000000006 19.32 c0.16 0.02 0.04 0.68 -0.12 0.68 l-5.48 0 c-0.16 0 -0.28 -0.66 -0.12 -0.68 c1.02 -0.14 1.66 -0.54 1.66 -1.8 l0 -3.44 c-0.1 -0.34 -0.52 -0.34 -0.9 -0.34 l-5.12 0 c-0.38 0 -0.8 0 -0.9 0.34 l0 3.44 c0 1.4 0.8 1.68 1.66 1.8 c0.16 0.02 0.04 0.68 -0.12 0.68 l-5.48 0 c-0.16 0 -0.28 -0.66 -0.12 -0.68 c1.02 -0.14 1.66 -0.54 1.66 -1.8 l0 -9.04 c0 -1.26 -0.64 -1.66 -1.66 -1.8 c-0.16 -0.02 -0.04 -0.68 0.12 -0.68 l5.48 0 c0.16 0 0.28 0.66 0.12 0.68 c-0.86 0.12 -1.66 0.4 -1.66 1.8 l0 3.66 c0.1 0.34 0.52 0.34 0.9 0.34 l5.12 0 c0.38 0 0.8 0 0.9 -0.34 l0 -3.66 c0 -1.26 -0.64 -1.66 -1.66 -1.8 c-0.16 -0.02 -0.04 -0.68 0.12 -0.68 l5.48 0 c0.16 0 0.28 0.66 0.12 0.68 c-0.86 0.12 -1.66 0.4 -1.66 1.8 l0 9.04 c0 1.4 0.8 1.68 1.66 1.8 z"></path></g>
			</g>
		</svg>
	